<svg width="500" height="500" viewBox="0 0 500 500" fill="none" xmlns="http://www.w3.org/2000/svg">
<path d="M150.43 411.924C169.97 411.924 185.811 427.765 185.812 447.306C185.812 466.847 169.971 482.688 150.43 482.688C130.889 482.688 115.047 466.847 115.047 447.306C115.047 427.765 130.889 411.924 150.43 411.924ZM348.57 411.924C368.111 411.924 383.953 427.765 383.953 447.306C383.953 466.847 368.111 482.688 348.57 482.688C329.029 482.688 313.188 466.847 313.188 447.306C313.189 427.765 329.029 411.924 348.57 411.924ZM150.43 429.615C140.659 429.615 132.739 437.535 132.738 447.306C132.738 457.076 140.659 464.997 150.43 464.997C160.2 464.997 168.12 457.076 168.12 447.306C168.12 437.535 160.2 429.615 150.43 429.615ZM348.57 429.615C338.8 429.615 330.879 437.535 330.879 447.306C330.879 457.076 338.8 464.997 348.57 464.997C358.341 464.997 366.262 457.076 366.262 447.306C366.261 437.535 358.341 429.615 348.57 429.615ZM424.053 369.465C431.869 369.465 438.206 375.802 438.206 383.618C438.206 391.434 431.869 397.771 424.053 397.771H74.9473C67.131 397.77 60.7941 391.434 60.7939 383.618C60.794 375.802 67.1309 369.465 74.9473 369.465H424.053ZM167.555 190.319C170.889 186.999 176.285 187.009 179.605 190.344L212.985 223.859L213.347 223.52C219.697 229.496 223.265 237.602 223.265 246.055C223.265 251.09 221.998 256.002 219.632 260.414L245.633 286.52L274.653 257.383C266.522 243.053 271.603 221.062 287.833 204.832C306.353 186.312 332.374 182.308 345.954 195.888C359.533 209.467 355.529 235.489 337.01 254.009C322.587 268.432 303.613 274.049 289.511 269.415L259.054 299.995L303.595 344.717C307.492 348.63 307.479 354.961 303.566 358.858L302.206 360.213C298.293 364.11 291.962 364.097 288.064 360.185L243.585 315.526L199.699 359.591C195.993 363.312 189.972 363.324 186.251 359.618C182.53 355.912 182.518 349.891 186.224 346.17L230.164 302.051L203.325 275.104C198.99 276.944 194.251 277.925 189.403 277.925C180.423 277.925 171.809 274.567 165.459 268.59L165.958 268.119L134.042 236.074C130.721 232.74 130.732 227.344 134.066 224.022C137.401 220.702 142.796 220.713 146.117 224.047L180.226 258.293C180.442 258.51 180.642 258.737 180.83 258.97C181.4 259.305 181.992 259.605 182.6 259.87C183.189 259.608 183.732 259.24 184.196 258.775C185.193 257.779 185.753 256.427 185.753 255.019C185.753 254.872 185.744 254.726 185.732 254.581L149.603 218.306C146.282 214.971 146.293 209.576 149.627 206.255C152.961 202.934 158.358 202.945 161.679 206.279L199.516 244.269C200.495 244.051 201.402 243.56 202.123 242.84C203.119 241.844 203.68 240.492 203.68 239.083C203.68 239.015 203.676 238.946 203.674 238.878C203.57 238.695 203.461 238.513 203.349 238.334L167.53 202.371C164.209 199.037 164.22 193.64 167.555 190.319ZM249.5 102.918C262.527 102.918 273.088 113.479 273.088 126.506C273.088 127.035 273.068 127.56 273.034 128.08C288.176 130.113 303.025 134.101 317.201 139.973C338.665 148.863 358.168 161.895 374.596 178.322C391.023 194.75 404.055 214.253 412.945 235.717C421.836 257.181 426.412 280.186 426.412 303.418H439.386C445.248 303.418 450 308.17 450 314.032C450 319.894 445.248 324.647 439.386 324.647H319.085C313.223 324.647 308.471 319.894 308.471 314.032C308.471 308.17 313.223 303.418 319.085 303.418H400.334C400.334 283.61 396.433 263.996 388.853 245.696C381.272 227.396 370.161 210.769 356.155 196.763C342.149 182.756 325.522 171.646 307.222 164.065C288.922 156.485 269.308 152.584 249.5 152.584C229.692 152.584 210.078 156.485 191.778 164.065C173.478 171.646 156.851 182.756 142.845 196.763C128.839 210.769 117.728 227.396 110.147 245.696C102.567 263.996 98.666 283.61 98.666 303.418H179.915C185.777 303.418 190.529 308.17 190.529 314.032C190.529 319.894 185.777 324.647 179.915 324.647H59.6143C53.7522 324.647 49 319.894 49 314.032C49.0002 308.17 53.7523 303.418 59.6143 303.418H72.5879C72.5879 280.186 77.1641 257.181 86.0547 235.717C94.9453 214.253 107.977 194.75 124.404 178.322C140.832 161.895 160.335 148.863 181.799 139.973C195.975 134.101 210.823 130.113 225.965 128.08C225.931 127.56 225.912 127.035 225.912 126.506C225.912 113.479 236.473 102.918 249.5 102.918ZM180.852 42.1777C185.928 39.2469 192.42 40.9869 195.352 46.0635L214.222 78.748C217.153 83.8249 215.414 90.3168 210.337 93.248C205.26 96.1792 198.768 94.4392 195.837 89.3623L176.966 56.6777C174.035 51.6009 175.775 45.1088 180.852 42.1777ZM301.29 46.0635C304.221 40.9868 310.712 39.2472 315.789 42.1777C320.866 45.1089 322.606 51.6008 319.675 56.6777L300.804 89.3623C297.873 94.4391 291.382 96.1789 286.305 93.248C281.228 90.3168 279.488 83.8249 282.419 78.748L301.29 46.0635ZM248.32 18C254.182 18 258.935 22.7522 258.936 28.6143V71.0732C258.936 76.9356 254.183 81.6885 248.32 81.6885C242.458 81.6883 237.706 76.9355 237.706 71.0732V28.6143C237.706 22.7523 242.458 18.0002 248.32 18Z" fill="#A55B36"/>
</svg>
